# xmcd
# Copyright (C) 1995-1998 Ti Kan
#
# Track frame offsets:
#       150
#       18496
#       43284
#       64734
#       86087
#       105012
#       126931
#       151499
#       176854
#       203281
#       219195
#
# Disc length: 3202 seconds
#
# Revision: 0
# Processed by: cddbd v1.5.2PL0 Copyright (c) Steve Scherf et al.
# Submitted via: CD-Import v1.0
#
DISCID=8d0c800b
DTITLE=Dub Spencer and Trance Hill  - Return Of The Supercop
DYEAR=1900
DGENRE=
TTITLE0=Dublerone
TTITLE1=Galli-Dani
TTITLE2=Nano Dub
TTITLE3=Goboi
TTITLE4=Dub Cup
TTITLE5=Schafmann
TTITLE6=Supercops
TTITLE7=Tinguely
TTITLE8=Trance On Hill
TTITLE9=Piedone In Dub
TTITLE10=Falling Angel
EXTD=
EXTT0=
EXTT1=
EXTT2=
EXTT3=
EXTT4=
EXTT5=
EXTT6=
EXTT7=
EXTT8=
EXTT9=
EXTT10=
PLAYORDER=
